<svg width="32" height="32" viewBox="0 0 32 32" fill="none" xmlns="http://www.w3.org/2000/svg">
  <!-- Career.Dental — premium teal tooth mark -->
  <defs>
    <linearGradient id="g" x1="0" y1="0" x2="32" y2="32" gradientUnits="userSpaceOnUse">
      <stop stop-color="#0E7C86"/>
      <stop offset="1" stop-color="#094F56"/>
    </linearGradient>
  </defs>
  <rect width="32" height="32" rx="7" fill="url(#g)"/>
  <!-- Tooth glyph -->
  <path d="M16 7c-2.4 0-3.4 1-5 1-1.7 0-3 1.4-3 3.6 0 1.7.5 3.3.9 5 .4 1.9.7 4 1.2 5.6.3.9.7 1.6 1.4 1.6 1 0 1.2-1.1 1.5-2.6.3-1.5.5-2.9.9-2.9s.6 1.4.9 2.9c.3 1.5.5 2.6 1.5 2.6.7 0 1.1-.7 1.4-1.6.5-1.6.8-3.7 1.2-5.6.4-1.7.9-3.3.9-5C21 9.4 19.7 8 18 8c-1.6 0-2.6-1-4-1z"
        fill="#ECFBFA"/>
</svg>
